<?xml version="1.0" encoding="UTF-8"?>
<svg id="Livello_1" data-name="Livello 1" xmlns="http://www.w3.org/2000/svg" version="1.1" viewBox="0 0 232 164">
  <defs>
    <style>
      .cls-1 {
        fill: #fff;
        stroke-width: 0px;
      }
    </style>
  </defs>
  <path class="cls-1" d="M142.1,66.3c-7.7,13.6-19.1,18.9-35,18.9s-24.9-4.9-32.6-12.6c8.1,17.5,25.7,29.6,46.1,29.6s32.4-8.6,41.6-21.8l-20.1-14.2Z"/>
  <path class="cls-1" d="M69.8,51.1c0,16.2,16.7,29.3,37.3,29.3,5.7,0,11.4-1,16.7-3.1-1.1.1-2.2.2-3.3.2-14.5,0-26.3-11.8-26.3-26.4s11.8-26.4,26.3-26.4c4.2,0,8.4,1,12.1,3s7,4.8,9.4,8.3l20.1-14.2C153,8.6,137.8,0,120.6,0,92.5,0,69.8,22.9,69.8,51.1h0Z"/>
  <path class="cls-1" d="M49.8,141.5c-1.8,2.6-4.2,4.7-7,6.2-2.8,1.5-5.9,2.2-9.1,2.2-10.9,0-19.7-8.9-19.7-19.9s8.8-19.9,19.7-19.9c3.2,0,6.3.8,9.1,2.2s5.2,3.6,7,6.2l11.4-8c-3.1-4.5-7.2-8.1-12-10.6-4.8-2.5-10.1-3.8-15.6-3.8-18.6,0-33.7,15.2-33.7,33.9s15.1,33.9,33.7,33.9c5.4,0,10.8-1.3,15.6-3.8s8.9-6.2,12-10.6l-11.4-8Z"/>
  <path class="cls-1" d="M110.3,129.6c-2.5-5.9-7.1-10.6-13-13.1-4.5-1.9-9.5-2.4-14.2-1.5-4.8.9-9.2,3.3-12.6,6.8-3.4,3.4-5.8,7.8-6.7,12.6s-.5,9.7,1.4,14.2c1.9,4.5,5,8.3,9,11.1,4,2.7,8.8,4.2,13.7,4.2,3.2,0,6.4-.6,9.4-1.9,3-1.2,5.7-3.1,7.9-5.3,3.4-3.5,5.8-7.9,6.7-12.7.9-4.8.4-9.8-1.5-14.3h0ZM79.1,130.5c1.1-1.1,2.5-2.1,4-2.7,1.5-.6,3.1-.9,4.7-.9,6.7,0,12.1,5.5,12.1,12.3,0,1.6-.3,3.2-.9,4.7-.6,1.5-1.5,2.8-2.6,4-1.1,1.1-2.5,2-4,2.6-1.5.6-3.1.9-4.7.9s-3.2-.3-4.7-.9c-1.5-.6-2.8-1.5-4-2.6-2.3-2.3-3.6-5.4-3.6-8.7s1.3-6.4,3.6-8.7h0Z"/>
  <path class="cls-1" d="M181.1,152.3c-1.4.3-2.6.5-4,.6-1.8,0-3.1-.3-3.9-1.2-.9-.9-1.3-2.3-1.3-4.3v-23.4h9.1v-10.6h-9.1v-12.6l-11.4,3.8-.2,8.8h-6.9v10.6h6.1v23.4c0,4.8,1,8.7,3,11.5,2,2.8,5,4.5,8.9,5,.6,0,1.3.1,1.9.1,3.6,0,7.7-.9,7.9-1h.3v-10.7h-.4Z"/>
  <path class="cls-1" d="M147,140.1c-2-2-5.1-3.8-10.2-6.1l-1.5-.7c-1.8-.8-3.3-1.5-4.5-2-1.7-.8-2.5-1.9-2.2-3,.4-1.5,2.7-2.8,5.7-2.5,2.1.2,3.6.7,5.7,3,0,.1.4.5.8,1.1l.2.3,8-6.7v-.2c-2.3-4.9-8.9-8.5-15.9-8.5s-8.5,1.4-11.6,3.8c-1.6,1.2-2.9,2.7-3.8,4.5-1,1.8-1.5,3.9-1.4,5.9,0,1.9.4,3.8,1.3,5.5.8,1.5,1.9,2.9,3.1,4,1.4,1.2,3.4,2.8,8.3,4.9,1,.4,1.9.8,2.8,1.2,3.1,1.3,5.3,2.2,6,3.5.2.4.3.8.2,1.2,0,.3-.1.7-.3,1-.2.3-.4.6-.6.8-1,.9-3.5,1.8-6,1.7-4-.3-8-2.6-9.8-5.8h0s0-.1,0-.1h0c0,0-.3-.4-.3-.4l-7,8.1v.2c1.3,2.5,3.7,4.9,6.6,6.5,3.4,1.9,7.2,2.9,11,2.8,4.9,0,9.5-1.5,13-4.2,1.7-1.3,3.1-3,4.1-4.9,1-2,1.5-4.2,1.5-6.4,0-3.4-1.1-6-3.3-8.3Z"/>
  <path class="cls-1" d="M221,163.6h11v-49.9l-10.7,3.4-.3,2.1c-1.8-1.5-6-4.6-13.8-4.6-3.3,0-7.9,1.4-10.5,2.7-3.5,1.8-6.5,4.4-8.7,7.5-2.3,3.2-3.8,6.8-4.4,10.7-.6,3.9-.3,7.8.9,11.5,1.2,3.7,3.3,7.1,6,9.8,2.2,2.3,4.9,4,7.9,5.3s6.1,1.8,9.3,1.8h.1c2.7,0,8.7-1.1,13.1-4.9v4.6ZM220,139.2c0,.2,0,.4,0,.6,0,0,0,0,0,0h0c0,.2,0,.4,0,.5-.3,3-1.7,5.8-3.9,7.8-2.3,2.1-5.4,3.2-8.5,3.2-3.1,0-6.1-1.4-8.3-3.6-1.7-1.7-2.9-3.9-3.4-6.3-.5-2.4-.2-4.8.7-7.1.9-2.2,2.5-4.2,4.5-5.5,2-1.3,4.4-2.1,6.8-2.1,6.7,0,12.1,5.5,12.1,12.3h0Z"/>
</svg>