<?xml version="1.0" encoding="UTF-8"?>
<svg id="Livello_2" data-name="Livello 2" xmlns="http://www.w3.org/2000/svg" viewBox="0 0 615.13 322.09">
  <defs>
    <style>
      .cls-1 {
        fill: #141414;
        stroke-width: 0px;
      }
    </style>
  </defs>
  <g id="Livello_1-2" data-name="Livello 1">
    <g>
      <path class="cls-1" d="M115.78,69.93c3.19,7.32,5.44,14.82,6.57,21.95,6-26.64,11.07-41.65,20.08-55.91-1.5.56-3,1.13-4.32,1.88-9.19,5.07-16.14,17.07-22.33,32.08Z"/>
      <path class="cls-1" d="M611.42,170.03l3.71-19.12h-44.67l-9.22,47.56c-4.22-5.06-10.33-7.03-15.41-7.03-16.88,0-32.29,15.9-39.36,39.64-.89-10.05-4.23-18.84-9.9-25.67-7.59-9.14-18.58-13.97-31.8-13.97-21.2,0-40.29,15.45-48.01,37.8-1.11-9.28-4.37-17.43-9.69-23.83-2.83-3.4-6.13-6.21-9.84-8.39,8.88-8.2,14.98-19.78,17.67-33.63l18.36-94.54h-1.8l3.71-19.12h-44.67l-3.69,19.12h-.95l3.71-19.12h-44.66l-8.7,44.85c.02-1.95-.11-3.84-.39-5.66.56-1.68,1.04-3.47,1.43-5.41,2.17-10.66.31-20.27-5.24-27.06-4.92-6.03-12.22-9.35-20.54-9.35-20.03,0-38.88,16.57-46.55,39.74l11.86-61.15h-1.8l3.71-19.12h-44.66l-19.35,99.18c-.38.83-.72,1.34-1.03,1.65l15.84-81.71h-1.79l3.71-19.12h-41.11l.44-.69-3.33-1.48c-9.15-4.07-16.27-4.4-23.98-4.4-24.83,0-48.05,13.13-67.32,38.03-8.46-6.6-18.01-10.08-27.81-10.08-27.56,0-32.61,21.03-33.5,27.44-.48,3.21-.2,6.59.75,9.81-1.68,3.81-2.38,7.29-2.66,9.31-.8,5.31.49,11.03,3.41,15.81-17.69,5.41-30.88,19.01-33.76,35.56-.76,4.4-.84,8.71-.27,12.82-.71,2.04-1.27,4.14-1.64,6.3-2.01,11.68.74,22.69,7.76,31.02,7.26,8.62,18.4,13.36,31.36,13.36,29.17,0,49.07-17.91,62.37-56.33,2.67,10.66,4.1,21.99,4.1,32.74v3.13h50.49l.24-2.87c.47-5.63.97-11.04,1.5-16.24h.17l.24-2.87c.16-1.95.33-3.86.5-5.76,5.75-51.76,13.97-81.47,20.18-97.69l-14.31,73.31c-1.04,5.31-1.37,10.14-1,14.44l-.91,4.67c-2.44,12.41-.99,22.29,4.19,28.59,3.39,4.12,8.27,6.5,14.19,6.96-1.13,2.5-2.01,5.19-2.58,8.06-1.07,5.45-1.13,10.14-.56,14.14-.55,1.59-1.01,3.25-1.36,4.97-1.87,9.48-.65,16.66,1.59,21.93-12.33,4.22-21.68,15.1-24.63,29.68-.91,4.56-1.05,9.17-.45,13.65-.59,1.76-1.08,3.58-1.46,5.47-2.45,12.24.69,24.81,8.62,34.48,9.64,11.76,25.07,18.24,43.42,18.24,38.88,0,60.27-19.62,65.4-59.97v-.11c.11-1.03.26-2.11.4-3.15h0s2.64,0,2.64,0c-1.3,9.65-2.68,20.18-4.16,31.77l-.45,3.53h.55c-.65,4.98-1.32,10.16-2.01,15.58l-.45,3.53h50.32l.27-2.84c.54-5.71,1.06-11.12,1.57-16.27h.08l.27-2.84c.27-2.9.54-5.71.8-8.46,1.48-14.14,2.86-25.94,4.23-35.85-.16,2.44-.21,4.84-.12,7.17-.23.93-.44,1.87-.63,2.82v.03c-3.38,18.05-.25,34,8.81,44.91,7.59,9.14,18.58,13.96,31.8,13.96,21.47,0,40.53-15.34,48.04-37.55,1.14,9.18,4.39,17.24,9.66,23.59,7.59,9.14,18.58,13.96,31.8,13.96,20.56,0,38.92-14.07,47.03-34.77.17,13.77,3.95,21.82,7.76,26.45,4.49,5.45,10.65,8.33,17.82,8.33s16.59-3.58,23.32-13.13c3.33,8.35,9.9,13.13,18.52,13.13,11.21,0,30.86-5.93,36.5-45.66l.51-3.58h-1.97c1.38-4.5,2.53-9.64,3.37-15.54l.51-3.57h-7.01l-.8,1.93c-.51,1.23-.92,1.9-1.3,2.28l15.84-81.73h-1.79ZM155.75,146.67h-44.47c0-14.07-2.44-29.65-7.13-43.53-.56,1.88-1.13,3.75-1.69,5.63-12.01,37.34-30.02,58.35-60.79,58.35-25.33,0-39.78-18.95-36.02-40.72,2.97-17.07,17.86-31.02,37.78-34.59.42-.08.86.08,1.14.41.37.43.38,1.06.03,1.51-.87,1.13-1.3,2.36-1.61,3.59-1.12,4.5,1.69,8.44,7.32,8.44,7.51,0,15.76-8.25,28.52-33.96.56-1.31,1.31-2.63,1.88-3.75-3-1.69-6.38-2.63-9.76-2.63-6.75,0-9.76,2.81-10.7,5.82-.81,2.28-.08,4.83,1.23,6.21.35.37.44.9.19,1.34-.19.33-.53.54-.91.56-17.2.93-24.33-13.66-22.85-23.49,1.69-12.2,10.13-24.77,30.4-24.77,10.88,0,20.45,4.5,28.33,11.45C114.66,18.15,137.17,3.14,163.44,3.14c7.88,0,14.26.38,22.7,4.13-10.88,17.07-23.83,60.98-30.4,139.41ZM168.32,117.4l21.02-107.7h38.28l-17.82,91.94c-1.13,6-1.13,9.38,2.63,9.38,3.01,0,4.34-2.17,5.27-4.3l18.93-97.02h38.28l-17.83,91.94c-1.13,6-1.13,9.38,2.63,9.38,2.32,0,3.64-1.29,4.56-2.86.15-3.76.62-7.75,1.45-11.96,5.25-27.02,25.52-45.97,45.78-45.97,15.01,0,26.83,12.38,22.7,32.65-2.63,13.13-9.19,19.51-25.89,24.77,2.63,3.38,6.94,5.63,13.32,5.63,4.77,0,10.98-2.16,15.46-6.65l10.43-53.77h38.28l-9.57,49.35c-1.13,6-.94,8.82,1.88,8.82,1.88,0,3.19-.75,4.69-4.69l10.32-53.48h38.28l-17.64,90.81c-6,30.96-27.96,43.16-43.15,43.16-23.65,0-34-31.8-2.03-41.99.43-.14.91,0,1.21.34.43.49.34,1.22-.15,1.63-2.75,2.28-2.49,5.5.23,5.5,3.38,0,4.88-4.31,6-10.51l1.88-9.76c-6.38,9.01-15.95,11.82-24.2,11.82-12.59,0-19.76-7.7-18.92-22.21-8.1,20.77-23.69,27.65-37.75,27.65-17.01,0-30.29-11.72-32.36-32.61-3.77,15.52-10.36,24.96-18.61,29.45-3.84-.45-7.75-.67-11.59-.63-3.93.04-7.88.34-11.79.89-5.6-3.73-8.45-10.96-7.91-21.05-6.2,16.72-16.59,23.95-28.82,23.95-14.45,0-21.39-11.82-17.45-31.9ZM346.73,174.27c-2.04,3.3-3.04,6.77-3.26,10.12-1.34-2.29-2.92-4.35-4.68-6.16,2.05-2.88,4.3-4.92,6.86-6.85l.2-.15c.23,1.05.51,2.07.88,3.05ZM315.62,291.02h-43.91c2.63-20.64,5.07-38.84,7.32-54.41h-9.76c-.19,1.88-.56,3.94-.75,6-4.13,32.46-19.51,57.23-62.29,57.23-35.09,0-53.85-24.58-48.97-48.97,3.57-17.64,17.26-29.08,33.21-29.08,9.07,0,15.16,4.56,19.62,9.95.28.33.31.81.1,1.18-.23.41-.71.59-1.17.49-5.33-1.23-8.27,1.49-8.98,4.89-.75,3.94,2.63,8.82,10.69,8.82,10.7,0,15.57-8.07,19.51-21.2,5.44-18.01,11.63-31.33,18.57-37.71-3.94-3.38-8.26-4.88-13.13-4.88-7.5,0-11.07,3.75-11.82,8.44-.72,5.04,3.23,10.78,9.69,8.41.47-.17.99.07,1.19.53.12.28.1.6-.05.87-4.69,8.07-11.8,14.78-24.34,14.78-17.45,0-32.83-12.38-28.14-36.21,3.4-17.13,19-27.51,36.93-31.16,4.99-.91,10.09-1.41,15.16-1.46,2.66-.03,5.35.08,8.03.29.57.05,1.14.1,1.7.15.42.04.84.09,1.25.13,23.52,2.64,36.14,13.55,44.63,25.47-7.69,6.38-11.63,11.45-15.57,31.15h10.32c7.69-36.02,17.07-51.22,35.27-51.22,9.38,0,18.76,5.07,23.83,15.39-13.7,10.32-18.95,24.02-28.15,122.15ZM223.52,234.82c-3.27,6.52-7.16,9.16-12.79,9.16-4.19,0-6.06-1.51-6.81-2.41-.68-.82-.97-1.8-.82-2.63.04-.21.12-.45.22-.69,1.67.22,3.38.35,5.12.35,5.69,0,10.7-1.25,15.07-3.77ZM343.74,190.49l.2-.15c.79,3.67,2.45,6.98,4.78,9.76-11.06,7.75-19.59,20.18-23.2,35.09,5.06-31.34,10.1-38.59,18.22-44.71ZM412.81,249.74c-4.69,25.52-24.58,43.91-47.28,43.91-27.77,0-43.53-23.08-37.53-55.16,5.07-25.52,24.96-43.9,47.28-43.9,27.77,0,43.53,23.08,37.53,55.16ZM502.31,249.74c-4.69,25.52-24.58,43.91-47.28,43.91-27.77,0-43.53-23.08-37.53-55.16,5.07-25.52,24.96-43.9,47.28-43.9,27.77,0,43.53,23.08,37.53,55.16ZM593.5,245.98c-1.13,6-1.13,9.38,2.63,9.38,3.04,0,4.38-2.22,5.31-4.38.12-.17.3-.27.5-.31h.25s.04,0,.06,0c.35.09.58.44.55.82-4.43,29.79-17.33,42.14-33.32,42.14-9.94,0-15.95-7.32-17.45-18.39-6,14.07-17.45,18.39-24.39,18.39-14.82,0-27.77-14.45-20.26-53.1,5.25-27.02,21.2-45.97,38.46-45.97,6.75,0,14.45,3.75,16.7,13.7l10.51-54.23h38.28l-17.82,91.94Z"/>
      <path class="cls-1" d="M315.61,88.13c1.5-4.88-.19-7.13-1.88-7.13-3.19,0-6.38,5.07-8.07,13.13-.38,1.69-.38,3.19-.38,4.69,4.5-2.25,9.01-6.19,10.32-10.69Z"/>
      <path class="cls-1" d="M462.91,225.35c-3,0-5.82,5.44-7.69,15.01-2.06,9.57-.94,15.01,3.38,15.01,3,0,5.82-5.44,7.69-15.01s.75-15.01-3.38-15.01ZM458.49,252.22c1.13-3.05,2.15-4.32,2.62-4.61-1.13,3.05-2.15,4.32-2.62,4.61Z"/>
      <path class="cls-1" d="M373.41,225.35c-3,0-5.82,5.44-7.69,15.01-2.06,9.57-.94,15.01,3.38,15.01,3,0,5.82-5.44,7.69-15.01s.75-15.01-3.38-15.01ZM368.99,252.22c1.13-3.05,2.15-4.32,2.62-4.61-1.13,3.05-2.15,4.32-2.62,4.61Z"/>
      <path class="cls-1" d="M555.97,225.35c-3.75,0-6.94,5.07-8.82,14.45-1.69,8.63-1.13,15.57,2.25,15.57,1.31,0,3.19-1.5,5.07-5.82l3.94-20.26c-.19-2.81-1.31-3.94-2.44-3.94Z"/>
    </g>
  </g>
</svg>